<svg xmlns="http://www.w3.org/2000/svg" viewBox="0 0 32 32">
  <defs>
    <linearGradient id="bg" x1="0" y1="0" x2="1" y2="1">
      <stop offset="0%" stop-color="#3b82f6"/>
      <stop offset="100%" stop-color="#1d4ed8"/>
    </linearGradient>
  </defs>
  <rect width="32" height="32" rx="8" fill="url(#bg)"/>
  <path d="M10 24V8h6.5c1.7 0 3.1.5 4 1.5.9 1 1.4 2.2 1.4 3.7 0 1.5-.5 2.8-1.4 3.7-.9 1-2.3 1.5-4 1.5H14v5.6H10z M14 15.4h2.2c.7 0 1.3-.2 1.7-.6.4-.4.6-1 .6-1.6 0-.7-.2-1.2-.6-1.6-.4-.4-1-.6-1.7-.6H14v4.4z" fill="#ffffff"/>
</svg>
